<svg xmlns="http://www.w3.org/2000/svg" xmlns:xlink="http://www.w3.org/1999/xlink" width="2440" height="254.38" viewBox="0 0 2440 254.38"><defs><linearGradient id="linear-gradient" x1="1220" y1="-1.23" x2="1220" y2="259.1" gradientUnits="userSpaceOnUse"><stop offset="0" stop-color="#5028ff"/><stop offset="1" stop-color="#efc4ff"/></linearGradient></defs><title>FOREGROUND</title><g id="Layer_2" data-name="Layer 2"><g id="Layer_3" data-name="Layer 3"><path id="FOREGROUND" d="M2425.18,120.44v5.32H2408.6v10.81h-12.08V92h-70.23V108.1h-13.67v-3.22h-14.88v-11h-14.88V108.1H2268v-3.22h-14.89v-11h-14.88v5.32h-16.58v19.36h-12.38V112h-14.88v6.54h-8.54V92h-27.1v-3.8h-21V92H2115.6v7.21h-19.77v-11h-21V108.1h-29.5v28h-11.3V106.31h-21v48.4h-4.75v-7.13h-22.61V111.9h-21v35.68h-26.65v-11h-33.21V108.1h-70.24v28.47h-11v-40H1813v40h-21.4v-40h-10.71v40h-16.45V184h-15.66V81.53h-10.7V184h-6.85V154.71h-3.85V147h-10.13v-40.7h-10.7v48.4h-10.44V119.49h-70.23v29h-9.75v14.62h-22v-57.9h-10.71v57.9h-9.19V148.53h-11.63V130h-10.71v7.49h-19.1V121.39h-14.88v5.31h-16.58v10.82h-12.08V92.92H1419v16.13h-13.67v-3.23h-14.88v-11h-14.88v14.24h-14.88v-3.23h-14.88v-11H1330.9v5.32h-16.58v19.36h-12.38V113h-14.88v6.54h-8.54V92.92h-27.1v-3.8h-21v3.8h-22.17v7.21h-19.77v-11h-21v19.93h-29.5v28h-11.3v-29.8h-21v48.41H1101v-7.13h-22.61V112.85h-21v35.68h-26.65v-11h-4.28v-1.81h.14v-3.55l.7-.66-.25-.26.09-.34-.54-.13v-.1h-.14v-1.95h.14v-.25l.55-.14-.55-.56v-4.09h-.14v-1.84h.14v-3.66l.36-.35h0l.33-.3-.2-.22,0-.16-.25-.06-.08-.08-.05,0-.16,0v-.21h-.14v-2h.37v-.19l.32-.08-.32-.33v-4.44h-.37V108h.37v-3.76l.47-.45-.25-.26.09-.34-.31-.08v-.15h-.37v-2h.37v-.3l.32-.09-.32-.32V95.94h-.37V94.1h.37V90.22l.47-.44-.25-.26.09-.34-.31-.08v0h-.16l-.21,0v-1.9h.37v-.42l.32-.08-.32-.33V82.07h-.37V80.24h.37v-4l.13-.13h0l.33-.31-.2-.21,0-.16-.25-.06-.06-.07v-.1h-.37v-2h.37v-.3l.32-.09-.32-.32V68.2h-.37V66.37h.37V62.48l.47-.44-.47-.5v-.22h-.37v-3.8h5v-3.4h-3.65v0h3.65V47.93h-3.65V46.65h24.12l0,.16.05-.16h5.63l0,.16.05-.16h5.63l0,.16.06-.16h5.62l0,.16.06-.16H1075l0,.16.06-.16h5.62l0,.16.06-.16h5.62l0,.16.06-.16h5.62l.06.16,0-.16h74.4l0,.16,0-.16h5.63l0,.16,0-.16h5.63l0,.16.06-.16h5.62l.05.16.06-.16h5.55l.12.39.14-.39h5.47l.12.39.14-.39H1201l.12.39.14-.39h5.47l.12.39.14-.39h11.69l-7.74-10.2H1198l-39.76,0L1021,0h0a.21.21,0,0,0-.11,0,.29.29,0,0,0-.13.05s0,0,0,0L982.18,36.34h-.33V28.66h-5.5v.11h-7.91v7.57h-.23V46.65h.23V51h9.4V48.6h4v-2h32.09v1.28h-3.42v6.15h3.42v0h-3.42v3.4h4.59V72.61l-.51.48.51.12V86.37l-.51.47.51.13v13.38l-.51.48.51.12v13.38l-.51.48.51.12v1.87H1015v5h.13v1.84H1015v4.53l-.38.36.38.09v.06h.13v1.95H1015v5h.13v1.81H997.6V109.05H927.37v28.47h-11v-40H905.7v40H884.29v-40h-10.7v40H857.13V185H841.48V82.48H830.77V185h-6.85V155.66h-3.85V148H809.94V107.25h-10.7v48.41H785V114.74H714.77v29.05H705V162.2H683V100.51h-10.7v47.07H660.94v-18.5h-10.7v7.49h-19.1V120.44H616.26v5.32H599.68v10.81H587.6V92H517.37V108.1H503.7v-3.22H488.82v-11H473.94V108.1H459.05v-3.22H444.17v-11H429.29v5.32H412.71v19.36H400.33V112H385.45v6.54h-8.54V92h-27.1v-3.8h-21V92H306.68v7.21H286.91v-11h-21V108.1h-29.5v28h-11.3V106.31h-21v48.4h-4.75v-7.13H176.82V111.9h-21v35.68H129.2v60.18h-9.49v-75H86.49V104.3H16.26v28.48h-11v-40H0V254.38H2440V120.44ZM1206.86,44.89l-2.29-7.06h4.77Zm-2.41-7.75h6.12l6.7,8.82h-10.06l3.1-8.82h-5.86Zm0,2.56,2,6.26h-2Zm-.71,6.14h-2.21l2.21-6.3Zm-.13-8-2.48,7.06-2.29-7.06Zm-4.89,1.87,2,6.14h-2Zm-3.32,5.19-2.29-7.06h4.77ZM1198,46h-2.26l2.26-6.42Zm-5-8.83h0Zm0,2.56,2,6.27h-2Zm-.71,6.15h-2.22l2.22-6.32Zm-.13-8-2.48,7.06-2.29-7.06Zm-4.89,1.86,2,6.15h-2Zm-.71,6.27h-2.34l2.34-6.66Zm-.13-8.36-2.48,7.06-2.29-7.06Zm-4.89,1.87,2.11,6.49h-2.11Zm-.71,6.37h-2.3l2.3-6.53Zm-.13-8.24-2.48,7.06-2.29-7.06Zm-4.89,1.87,2.06,6.37h-2.06Zm-.72,6.49h-2.33l2.33-6.65ZM1175,37.6l-2.49,7.06-2.29-7.06Zm-4.9,1.86,2.11,6.5h-2.11Zm-.7,6.38h-2.3l2.3-6.54Zm-.13-8.24-2.49,7.06-2.29-7.06Zm-4.9,1.86,2.07,6.38h-2.07Zm-.7,6.5h-2.43l2.43-6.89Zm-.14-8.59L1161,44.43l-2.29-7.06Zm-4.88,1.87,2.18,6.72h-2.18ZM1013.94,57.1h-3V54.54h3Zm0-3.44h-3V51.33h3Zm0-3h-3V48.35h3Zm17.21,3.86V57.1h-3.22V54.54Zm0-.88h-3.22V51.33h3.22Zm0-5.31v2.33h-3.22V48.35Zm-3.22-2.51V43.33h-1.14v-4.1l2.15,6.61Zm-1-8.46h4.77l-2.48,7Zm4.9,8.46h-2.38l2.38-6.77Zm.71.12V39.23l2.19,6.73Zm.12-8.59h4.77l-2.48,7.06Zm4.9,8.59h-2.42l2.42-6.88Zm.72-.12v-6.6l2.14,6.6Zm.11-8.47h4.77l-2.48,7.06Zm4.9,8.47h-2.37l2.37-6.76Zm.72.12V39.24l2.18,6.72Zm.11-8.59h4.78l-2.49,7.06ZM1049,46h-2.43l2.43-6.89Zm.7-.12V39.46l2.07,6.38Zm2.41-1.18-2.29-7.06h4.78Zm2.62,1.18h-2.3l2.3-6.54Zm.7.12v-6.5l2.12,6.5Zm2.42-1.3-2.3-7.06h4.78Zm2.61,1.3h-2.34l2.34-6.65Zm.71-.12V39.47l2.07,6.37Zm2.41-1.18-2.29-7.06h4.77Zm2.61,1.18h-2.3l2.3-6.53Zm.71.12V39.47L1069,46Zm2.41-1.3L1067,37.6h4.77Zm2.61,1.3h-2.34l2.34-6.66Zm.71-.12V39.46l2.07,6.38Zm2.41-1.18-2.29-7.06h4.77Zm2.61,1.18h-2.3l2.3-6.54Zm.71.12v-6.5l2.11,6.5Zm2.41-1.3-2.29-7.06h4.77Zm2.61,1.3h-2.34l2.34-6.65Zm.71-.12V39.47l2.07,6.37Zm2.41-1.18-2.29-7.06H1089Zm2.61,1.18h-2.29l2.29-6.53Zm.71.12V39.47l2.11,6.49Zm2.41-1.3L1090,37.6h4.77Zm2.62,1.3h-2.35l2.35-6.66Zm.7-.12V39l2.22,6.84Zm.2-8.46h4.61L1098,44.2Zm4.83,8.46h-2.46l2.46-7Zm.7.12V39l2.26,7Zm.12-8.82h4.78l-2.49,7.06Zm4.9,8.82h-2.5l2.5-7.11Zm.72-.12V39l2.21,6.83Zm.12-8.69h4.76l-2.48,7.05Zm4.89,8.69h-2.45l2.45-7Zm.72.12V39l2.25,7Zm.11-8.82h4.78l-2.48,7.06Zm4.91,8.82h-2.51l2.51-7.12Zm.71-.12V39.23l2.14,6.61Zm.12-8.46h4.77l-2.48,7Zm4.9,8.46h-2.38l2.38-6.77Zm.71.12V39.23L1126.4,46Zm.12-8.59h4.77l-2.48,7.06Zm4.9,8.59h-2.42l2.42-6.88Zm.71-.12v-6.6l2.14,6.6Zm.12-8.47h4.77l-2.48,7.06Zm4.9,8.47h-2.38l2.38-6.76Zm.71.12V39.24l2.18,6.72Zm.12-8.59h4.77l-2.48,7.06Zm4.9,8.59h-2.42l2.42-6.89Zm.71-.12V39.23l2.14,6.61Zm.12-8.46h4.77l-2.48,7Zm4.9,8.46h-2.38l2.38-6.77Zm.71.12V39.23l2.19,6.73Zm.12-8.59H1152l-2.48,7.06Zm4.9,8.59h-2.42l2.42-6.88Zm.72-.12v-6.6l2.13,6.6Zm5,0h-2.37l2.37-6.76Zm-2.61-1.41L1153,37.37h4.77Zm.18-8-77.77,0L1023,1.27ZM1020.93,5.13l4.67,31.14-9.34-.38Zm-.1-4.12-5.37,35.35h-25.3ZM1016,5.46l-26.8,30.89h-6Zm-2.08,37.87V46H981.85V41h44.23v2.29Zm5.82,23,1,1-.93.87h-4.26V66.37Zm-3.87-.69V62.5l3.18,3.18Zm5.33,1.17-.49-.48h1Zm.38,1.35h-.77l.39-.37Zm.68.69,3.6,3.6-.26.07h-9.42l3.9-3.67Zm-1.06,12.69.49.49h-1Zm-.37-1.34h.77l-.4.37Zm.37,14.35-.49-.49h1Zm.38,1.35h-.77l.39-.37Zm.68.69,3.6,3.6-.26.06h-9.42l3.9-3.66Zm.19,24.52h-2.42l-3.67-3.66h9.24l.36.08v.28Zm3.51-2.33v2.33h-2.48Zm-.1,9.14-.26.07h-9.42l3.9-3.67h2.18Zm-2.62-3.6H1026v2.73Zm-.67,10.66h-2.66l-3.67-3.66H1026v.47Zm3.39-2.21V135h-2.36Zm-4.12,2.9-.64.6-.6-.6Zm-6.17-18.91h-.16V115l3.68.89-3.38.87Zm3.38,4.35h-3.41v-3.41Zm.69.69,1,1-.93.88h-4.26v-1.84Zm-.7,2.52-3.4,3.21v-3.21Zm.15,5.32-3.68.95v-1.84Zm-3.55,2L1019,135h-3.3Zm2.49-1.06,2.48-.64,2.63.64Zm.09-1.95H1023l-2.29.59Zm2.59-5,.39-.38.38.38Zm.39-1.35-.49-.49h1Zm-2.63-5.53,2-.53,2.16.53Zm-.82-2h5.63l-2.74.7Zm-1.45-.69,3.9-3.66h1.95l3.67,3.66Zm-.43-.56v-3.1h3.29Zm5.06-3.79.27-.26.26.26Zm.27-1.23-.6-.61h1.24Zm-.5.47-.81.76h-4.38V108h4.12Zm-4.83-1.76v-3.07l3.07,3.07Zm-.36-4.4v-1.84l3.68.9Zm5.1-.6,2.63.64h-5.11Zm-2.39-1.31H1023l-2.29.59Zm-2.35-1.37v-3h3.17Zm3.9-3.67h-4.26V94.1h4.23l1,1Zm-3.9-2.52V90.24l3.18,3.18Zm-.36-4.51v-1.8h.18l3.5.85Zm5.1-.6,3.1.75h-6Zm-1.92-1.2h3.8l-1.85.48Zm-2.63-.68,3.89-3.67h2.43l3.48,3.48-.71.19Zm-.19-.8V82.76h3.05Zm3.78-3.56h-4.14V80.24h4.35l.84.84Zm-3.78-2.52v-3.3l3.3,3.3Zm-.17-4.44,0,0-.08.08-.07,0V73.32l3.68.89Zm4.91-.56,2.63.64h-5.11Zm-2.39-1.31H1023l-2.29.59Zm-2.35-1.37v-3h3.17Zm4.05,65.65h-4.41v-1.81h4.12l1.07,1.08Zm1,0,.25-.23.24.23Zm5.14,0h-3.68l-.71-.7,1.18-1.11h3.21Zm0-6.89-4-1,3.63-.93h.4Zm0-6.95h-3.54l-.85-.85,1-1h3.34Zm0-6.88h-.32l-3.71-.9,4-1Zm0-3.33-3-3h3Zm0-3.66h-3.66l-.73-.73,1.18-1.11h3.21Zm0-2.52h-2.49l2.49-2.35Zm0-3.32-3.52,3.32h-2.66l-3.67-3.67h9.85Zm0-1.08-4-1,3.63-.94h.4Zm0-3.41-2.85-2.85h2.85Zm0-3.54h-3.54l-.85-.85,1-1h3.34Zm0-2.52h-2.61l2.61-2.46Zm0-3.43-3.64,3.43h-2.42l-3.67-3.67h9.73Zm0-1.08-4-1,3.18-.82h.85Zm0-3.41-2.74-2.74h2.74Zm0-3.43h-3.43l-1-1,.93-.87h3.46Zm0-2.52h-2.73l2.73-2.57Zm0-3.55-3.76,3.55h-2.19l-3.67-3.67h9.62Zm0-.84-4-1,3.63-.94h.4Zm0-3.42-2.85-2.85h2.85Zm0-3.54h-3.54l-.85-.84,1-1h3.34Zm0-2.52h-2.61l2.61-2.46Zm0-3.43-3.64,3.43h-2.42L1016.38,62h9.73Zm0-.93h-10.58v-3.8h10.58ZM1021,.82l55.35,35.57-50,0Z" style="fill:url(#linear-gradient)"/></g></g></svg>