<svg xmlns="http://www.w3.org/2000/svg" xmlns:xlink="http://www.w3.org/1999/xlink" width="2439.57" height="402" viewBox="0 0 2439.57 402"><defs><linearGradient id="linear-gradient" x1="1219.78" y1="-1.95" x2="1219.78" y2="404.55" gradientUnits="userSpaceOnUse"><stop offset="0" stop-color="#5028ff"/><stop offset="1" stop-color="#efc4ff"/></linearGradient></defs><title>BACKGROUND</title><g id="Layer_2" data-name="Layer 2"><g id="Layer_3" data-name="Layer 3"><path id="BACKGROUND" d="M2439.57,402V188.35h-34.78V140h-9.48v40.71h-9v7.69h-3.41v29.32h-6.07V115.17h-9.48v102.5h-13.87V170.22h-14.57v-40h-9.48v40h-18.95v-40H2301v40h-9.72V141.75h-62.2v28.47h-29.42v75h-8.4V185h-23.6V149.34h-18.57V185h-20v7.12h-4.2v-48.4h-18.57v29.79h-10v-28h-26.13V125.61h-18.57v11h-17.5v-7.21h-19.63v-3.8h-18.57v3.8h-24V156h-7.57v-6.54h-13.18V156h-11V136.62h-14.69v-5.31h-13.18v11h-13.18v3.22H1886V131.31h-13.18v11h-13.18v3.22h-12.1V129.41h-62.2V174h-10.7V163.2h-14.68v-5.32h-13.18V174h-16.92v-7.49h-9.48V185h-10V138h-9.48v61.69h-19.52V181.23h-8.63v-29h-62.2V193.1h-12.61V144.7h-9.48v40.7h-9v7.7H1576v29.32h-6.07V119.92h-9.48v102.5h-13.87V175H1532V135h-9.48v40h-19V135h-9.48v40h-9.72V146.49H1468.6v-9.37l.5-.12-.5-.48V123.37l.5-.12-.5-.48V107.68h4.58v-3.4h-3.42v0h3.42V98.09h-3.42V96.81h32.09v2h4v2.4h9.4V96.81h.22V86.49h-.22V78.93h-7.91v-.12h-5.51V86.5h-.33L1463,50.24l0,0a.35.35,0,0,0-.13,0h-.16L1325.45,86.58l-39.75,0h-12.91l-7.74,10.2h11.68l.14.38.13-.38h5.47l.13.38.13-.38h5.47l.13.38.13-.38h5.47l.13.38.13-.38h5.55l0,.15.06-.15h5.62l0,.15.06-.15h5.62l.06.15,0-.15h5.62l.06.15,0-.15h74.39l.06.15,0-.15h5.63l0,.15,0-.15h5.63l0,.15,0-.15h5.63l0,.15,0-.15h5.63l.05.15,0-.15h5.63l.05.15.06-.15h5.62l.06.15,0-.15h5.62l.06.15.05-.15h24.12v1.28h-3.65v6.15h3.65v0h-3.65v3.4h5v3.8h-.36v.21l-.47.51.47.44v3.88h.36v1.84h-.36v4.32l-.33.33.33.08v.31h.36v1.95h-.36v.1l-.06.07-.25.06,0,.16-.2.21.32.3h0l.14.13v4h.36v1.83h-.36v4.22l-.33.32.33.09v.42h.36v1.9l-.2.05h-.16v0l-.31.08.08.34-.24.26.47.45v3.88h.36v1.83h-.36v.4h-34.62V175h-29.41v11h-23.61V150.29H1350.6V186h-20v7.12h-4.21V144.7H1307.8v29.79h-10v-28h-26.12V126.56H1253.1v11h-17.51v-7.21H1216v-3.8h-18.57v3.8h-24v26.57h-7.56v-6.54h-13.18v6.54h-11V137.57H1127v-5.31h-13.18v11h-13.18v3.22h-13.18V132.26h-13.18v11H1061.1v3.22H1049V130.36h-62.2V175H976.1V164.15H961.42v-5.32H948.23V175H931.32v-7.49h-9.48V186H911.53v14.61h-8.14V142.7h-9.48v57.89H874.39V186h-8.63v-29h-17V129.76h3.47v-10.4h-3.47v-6a19.07,19.07,0,0,0,1.59-36l-2.45-13.49H845.8L842.44,0h0l-1.68,63.89h-2.65s-1,7.84-1.82,13.47a19.07,19.07,0,0,0,1.54,36v6h-3.47v10.4h3.47v27.17H803.56v35.22h-9.25v-48.4h-9.48v40.71h-9v7.69h-3.4v29.32h-6.07V119h-9.48v102.5H743V174H728.47V134H719v40H700V134h-9.48v40h-9.71V145.54h-62.2V174H589.22v11h-23.6V149.34H547.05V185H527v7.12h-4.2v-48.4H504.25v29.79h-10v-28H468.11V125.61H449.54v11H432v-7.21H412.41v-3.8H393.84v3.8h-24V156h-7.57v-6.54H349.09V156h-11V136.62H323.44v-5.31H310.26v11H297.08v3.22H283.9V131.31H270.72v11H257.54v3.22h-12.1V129.41h-62.2V174h-10.7V163.2H157.86v-5.32H144.68V174H127.76v-7.49h-9.48V185H108v14.61H99.84V141.75H90.36v57.89H70.84V185H62.2V156H0V269.87H0V402ZM1276.84,95.05,1274.36,88h4.78Zm2.41,1.07h-2l2-6.27Zm0-8.83h-5.86l3.1,8.83h-10.06l6.7-8.83ZM1280,96v-6.3l2.21,6.3Zm2.61-.94L1280.09,88h4.78Zm2.4.94h-2l2-6.14Zm.72.13V89.69l2.25,6.43Zm2.61-1.07L1285.82,88h4.78Zm2.41,1.07h-2l2-6.28Zm0-8.83h0Zm.7,8.71V89.68l2.22,6.32Zm2.62-1L1291.56,88h4.77Zm2.41,1h-2l2-6.16Zm.7.12V89.45l2.35,6.67Zm2.62-1.3-2.48-7.07h4.77Zm2.4,1.3h-2.1l2.1-6.5Zm.72-.13V89.46l2.29,6.53Zm2.61-1.17L1303,87.75h4.77Zm2.41,1.17h-2.07l2.07-6.37Zm.71.13V89.46l2.34,6.66Zm2.61-1.3-2.48-7.07h4.77Zm2.41,1.3h-2.11l2.11-6.51Zm.71-.12V89.45l2.3,6.55Zm2.61-1.18-2.48-7.07h4.77Zm2.41,1.18h-2.07l2.07-6.39Zm.71.12v-6.9l2.42,6.9Zm.13-8.6H1325l-2.29,7.07Zm4.89,8.6h-2.18l2.18-6.73Zm130.68,11.14h-3.23V104.7h3.23Zm0-3.44h-3.23v-2.33h3.23Zm0-3h-3.23V98.51h3.23Zm5.36,45.25h-3.55v-1.83h3.34l1,1Zm2.52-30.26h-2.43l-3.64-3.43v-.23h9.74Zm4.15-3.18v3.18h-3.18Zm-.31,10.06h-9.41l-.27-.07,3.6-3.6h2.19Zm-2.86-3.67h3.17v3ZM1463,124l-2.29-.59h4.72Zm0,.72,2.48.64h-5.12Zm-1-6.35.37-.38.4.38Zm.37-1.35-.51-.49h1Zm-2.28-1.18h-2.61v-2.45Zm.73.69,1,1-.84.85h-3.55v-1.84Zm-.48,2.52-2.86,2.86V119ZM1458,123.4l3.62.93-4,1V123.4Zm-.39,2.64h9.6l-3.67,3.66h-2.18l-3.77-3.54V126Zm10.2.37v3.29h-3.29Zm-.18,10.17h-9.1l-.71-.18,3.49-3.49h2.42Zm-2.87-3.67h3v2.87Zm-1.72,4.83-1.84-.47H1465Zm0,.72,2.92.76h-6Zm-1.08-6.24.48-.48.52.48Zm.48-1.46-.39-.37h.77Zm-2.16-1.06h-2.73v-2.57Zm.73.69.93.88-1,.95h-3.43v-1.83Zm-.72,2.52-2.74,2.74v-2.74Zm-1.89,4.36,3.18.82-4,1v-1.79Zm8.89,2.63-3.67,3.67h-2.43l-3.64-3.43v-.24Zm.48.49v3.18h-3.18Zm-7.61,3.18h-2.61v-2.45Zm1.91,2.52.37-.37.4.37Zm.37-1.34-.51-.49h1Zm5.69,1.34h-4.26l-.93-.87,1-1h4.23Zm0-7-3.67-.95,3.5-.85h.17Zm0-6.85H1464l-1-1,.85-.85h4.34Zm0-6.91-.07,0-.07-.07,0,0-3.48-.9,3.67-.89Zm0-7h-4.26l-.93-.88,1-1h4.23Zm0-6.88H1468v0l0,0h-10.42v-3.8h10.58Zm4.59-6.78v2.56h-3V104.7Zm0-.88h-3v-2.33h3Zm0-5.31v2.33h-3V98.51Zm29.09-7.32v4.93h-32.09V93.48h-12.14V91.19Zm-1.37-4.69h-6l-26.8-30.88Zm-6.94,0h-25.3l-5.37-35.35Zm-30.77-31.21L1467.45,86l-9.35.39Zm-137,40.7V89.23l2.38,6.76Zm.13-8.47h4.77l-2.29,7.07Zm4.89,8.47h-2.14l2.14-6.6Zm.71.13V89.23l2.42,6.89Zm.13-8.6h4.77l-2.29,7.07Zm4.89,8.6h-2.18l2.18-6.74Zm.71-.12V89.22l2.38,6.78Zm.14-8.47h4.76l-2.29,7.06ZM1342.3,96h-2.15l2.15-6.62Zm.7.12v-6.9l2.43,6.9Zm.13-8.6h4.78l-2.29,7.07Zm4.89,8.6h-2.18l2.18-6.73Zm.72-.13V89.23l2.37,6.76Zm.13-8.47h4.77l-2.29,7.07Zm4.88,8.47h-2.14l2.14-6.6Zm.72.13V89.23l2.42,6.89Zm.13-8.6h4.77l-2.29,7.07Zm4.89,8.6h-2.19l2.19-6.74Zm.7-.12V89.22l2.38,6.78Zm.14-8.47h4.77l-2.29,7.06Zm4.89,8.47h-2.15l2.15-6.62Zm.71.12V89l2.5,7.13Zm.13-8.83h4.77l-2.29,7.07Zm4.89,8.83h-2.26l2.26-7Zm.71-.13V89l2.46,7Zm.13-8.68h4.77l-2.29,7Zm4.89,8.68h-2.22l2.22-6.82Zm.71.13V89l2.5,7.12Zm.13-8.83h4.77L1380,94.36Zm4.89,8.83h-2.26l2.26-7Zm.71-.12V89l2.46,7Zm.21-8.47H1388l-2.22,6.83Zm4.81,8.47h-2.22l2.22-6.85Zm.71.12V89.45l2.34,6.67Zm2.61-1.3L1389,87.75h4.77Zm2.41,1.3h-2.11l2.11-6.5Zm.71-.13V89.46l2.3,6.53Zm2.61-1.17-2.48-7.07h4.78ZM1399.6,96h-2.06l2.06-6.37Zm.72.13V89.46l2.33,6.66Zm2.61-1.3-2.49-7.07h4.78Zm2.41,1.3h-2.11l2.11-6.51Zm-77.1-9.54,132.42-35.15L1406,86.54ZM1406,96V89.45l2.3,6.55Zm2.62-1.18-2.49-7.07H1411Zm2.41,1.18H1409l2.07-6.39Zm.7.12V89.45l2.35,6.67Zm2.62-1.3-2.48-7.07h4.77Zm2.4,1.3h-2.1l2.1-6.5Zm.72-.13V89.46L1419.8,96Zm2.61-1.17-2.48-7.07h4.77Zm2.4,1.17h-2.06l2.06-6.37Zm.72.13V89.46l2.34,6.66Zm2.61-1.3-2.48-7.07h4.77Zm2.41,1.3h-2.11l2.11-6.51ZM1429,96V89.45l2.3,6.55Zm2.61-1.18-2.48-7.07h4.77ZM1434,96h-2.07l2.07-6.39Zm.71.12v-6.9l2.42,6.9Zm.13-8.6h4.77l-2.29,7.07Zm4.89,8.6h-2.18l2.18-6.72Zm.71-.13V89.23l2.38,6.76Zm.13-8.47h4.77L1443,94.59Zm4.89,8.47h-2.14l2.14-6.59Zm.71.13V89.23l2.42,6.89Zm.13-8.6h4.77l-2.29,7.07Zm4.89,8.6H1449l2.18-6.74Zm.71-.12V89.22l2.38,6.78Zm.14-8.47h4.76l-2.29,7.06Zm4.89,6h-1.14V96h-1l2.15-6.62Zm-49.58-6.94L1462.7,51l-5.33,35.55Z" style="fill:url(#linear-gradient)"/></g></g></svg>