<svg id="Layer_1" data-name="Layer 1" xmlns="http://www.w3.org/2000/svg" width="50" height="97.74" viewBox="0 0 50 97.74"><title>scroll icon</title><path d="M25,4A21,21,0,0,1,46,25V46A21,21,0,0,1,4,46V25A21,21,0,0,1,25,4m0-4h0A25,25,0,0,0,0,25V46A25,25,0,0,0,25,71h0A25,25,0,0,0,50,46V25A25,25,0,0,0,25,0Z" style="fill:#fff"/><path d="M25,33a3.5,3.5,0,0,1-3.5-3.5v-14a3.5,3.5,0,0,1,7,0v14A3.5,3.5,0,0,1,25,33Z" style="fill:#fff"/><path d="M25,85.8a1.61,1.61,0,0,1-1.13-.46L14.8,76.22A1.59,1.59,0,0,1,17.05,74l8,8,8-8a1.59,1.59,0,0,1,2.25,2.25l-9.11,9.12A1.61,1.61,0,0,1,25,85.8Z" style="fill:#fff"/><path d="M25,97.74a1.62,1.62,0,0,1-1.13-.47L14.8,88.15a1.58,1.58,0,0,1,0-2.25,1.59,1.59,0,0,1,2.25,0l8,8,8-8a1.59,1.59,0,0,1,2.25,0,1.58,1.58,0,0,1,0,2.25l-9.11,9.12A1.62,1.62,0,0,1,25,97.74Z" style="fill:#fff"/></svg>